<svg aria-hidden="true" style="position: absolute; width: 0; height: 0; overflow: hidden;" version="1.1" xmlns="http://www.w3.org/2000/svg" xmlns:xlink="http://www.w3.org/1999/xlink">
<defs>
<symbol id="icon-trash-alt-delete-bin" viewBox="0 0 32 32">
<path fill="none" stroke="#565656" style="stroke: var(--color1, #565656)" stroke-linejoin="round" stroke-linecap="round" stroke-miterlimit="4" stroke-width="3.8347" d="M4.001 8h24M6.668 8v18.667c0 1.473 1.194 2.667 2.667 2.667h13.333c1.473 0 2.667-1.194 2.667-2.667v-18.667M10.668 8v-2.667c0-1.473 1.194-2.667 2.667-2.667h5.333c1.473 0 2.667 1.194 2.667 2.667v2.667"></path>
</symbol>
<symbol id="icon-cross" viewBox="0 0 32 32">
<path d="M17.131 16.8l9.034-9.034c0.312-0.312 0.312-0.819 0-1.131s-0.819-0.312-1.131 0l-9.034 9.034-9.034-9.034c-0.312-0.312-0.819-0.312-1.131 0s-0.312 0.819 0 1.131l9.034 9.034-9.034 9.034c-0.312 0.312-0.312 0.819 0 1.131 0.157 0.157 0.362 0.234 0.566 0.234s0.41-0.078 0.566-0.234l9.034-9.034 9.034 9.034c0.157 0.157 0.362 0.234 0.566 0.234s0.41-0.078 0.566-0.234c0.312-0.312 0.312-0.819 0-1.131l-9.037-9.034z"></path>
</symbol>
<symbol id="icon-arrow-mini" viewBox="0 0 124 32">
<path fill="#565656" style="fill: var(--color1, #565656)" d="M121.414 17.414c0.781-0.781 0.781-2.047 0-2.828l-12.728-12.728c-0.781-0.781-2.048-0.781-2.828 0s-0.781 2.047 0 2.828l11.314 11.314-11.314 11.314c-0.781 0.781-0.781 2.047 0 2.828s2.047 0.781 2.828 0l12.728-12.728zM0 18h120v-4h-120v4z"></path>
</symbol>
<symbol id="icon-arrow" viewBox="0 0 400 32">
<path fill="#565656" style="fill: var(--color1, #565656)" d="M397.414 17.414c0.781-0.781 0.781-2.047 0-2.828l-12.728-12.728c-0.781-0.781-2.048-0.781-2.828 0s-0.781 2.047 0 2.828l11.314 11.314-11.314 11.314c-0.781 0.781-0.781 2.047 0 2.828s2.047 0.781 2.828 0l12.728-12.728zM0 18h396v-4h-396v4z"></path>
</symbol>
<symbol id="icon-burger-menu" viewBox="0 0 40 32">
<path fill="#6d7a5e" style="fill: var(--color2, #6d7a5e)" d="M0 0h39.619v7.619h-39.619v-7.619z"></path>
<path fill="#6d7a5e" style="fill: var(--color2, #6d7a5e)" d="M0 12.19h39.619v7.619h-39.619v-7.619z"></path>
<path fill="#6d7a5e" style="fill: var(--color2, #6d7a5e)" d="M0 24.381h39.619v7.619h-39.619v-7.619z"></path>
</symbol>
<symbol id="icon-apple-pay" viewBox="0 0 76 32">
<path fill="#565656" style="fill: var(--color1, #565656)" opacity="0.82" d="M13.926 4.079c-0.895 1.067-2.321 1.912-3.745 1.788-0.188-1.438 0.521-2.979 1.34-3.933 0.893-1.088 2.455-1.869 3.721-1.933 0.15 1.502-0.438 2.979-1.317 4.079zM15.228 6.15c-2.069-0.126-3.845 1.188-4.826 1.188-1.002 0-2.505-1.126-4.14-1.088-2.121 0.026-4.105 1.238-5.183 3.188-2.245 3.879-0.583 9.621 1.574 12.783 1.055 1.562 2.317 3.274 3.981 3.226 1.574-0.064 2.207-1.040 4.105-1.040 1.921 0 2.467 1.040 4.143 1.002 1.721-0.026 2.812-1.562 3.867-3.124 1.202-1.774 1.698-3.512 1.724-3.598-0.026-0.038-3.336-1.314-3.36-5.16-0.026-3.226 2.602-4.762 2.714-4.85-1.476-2.231-3.807-2.467-4.6-2.526l0.002-0.002zM27.171 1.783v23.464h3.607v-8.021h4.988c4.55 0 7.75-3.162 7.75-7.726 0-4.574-3.136-7.714-7.626-7.714l-8.719-0.002zM30.778 4.86h4.155c3.124 0 4.912 1.686 4.912 4.65s-1.788 4.664-4.936 4.664h-4.131v-9.314zM50.085 25.421c2.269 0 4.364-1.152 5.321-2.99h0.076v2.817h3.333v-11.683c0-3.371-2.676-5.564-6.807-5.564-3.819 0-6.648 2.219-6.745 5.257h3.236c0.274-1.45 1.588-2.393 3.412-2.393 2.207 0 3.436 1.040 3.436 2.952v1.288l-4.488 0.274c-4.193 0.259-6.45 1.983-6.45 4.998 0 3.038 2.333 5.048 5.679 5.048l-0.002-0.002zM51.066 22.643c-1.924 0-3.15-0.931-3.15-2.355 0-1.476 1.178-2.345 3.421-2.483l4.007-0.248v1.326c0 2.198-1.848 3.76-4.293 3.76h0.014zM63.269 31.633c3.507 0 5.159-1.364 6.598-5.469l6.324-17.931h-3.657l-4.24 13.85h-0.076l-4.24-13.85h-3.769l6.102 17.076-0.324 1.040c-0.56 1.75-1.45 2.428-3.038 2.428-0.286 0-0.831-0.036-1.055-0.059v2.817c0.21 0.060 1.105 0.086 1.364 0.086l0.012 0.012z"></path>
</symbol>
<symbol id="icon-basket" viewBox="0 0 26 32">
<path d="M25.596 29.105l-1.011-20.13h-5.052v-1.625c0-4.053-3.004-7.351-6.696-7.351s-6.696 3.297-6.696 7.351v1.625h-5.271l-0.87 20.217-0.001 0.035c-0.007 0.728 0.256 1.442 0.722 1.958s1.114 0.814 1.777 0.814h20.602c0.683 0 1.345-0.312 1.815-0.858s0.718-1.288 0.68-2.037zM7.888 7.351c0-2.996 2.22-5.433 4.949-5.433s4.949 2.437 4.949 5.433v1.625h-9.899v-1.625h0zM23.648 29.824c-0.142 0.164-0.341 0.258-0.547 0.258h-20.602c-0.2 0-0.395-0.089-0.535-0.245-0.137-0.152-0.216-0.361-0.217-0.576l0.79-18.369h3.605v2.428c0 0.529 0.391 0.959 0.873 0.959s0.873-0.429 0.873-0.959v-2.428h9.899v2.428c0 0.529 0.391 0.959 0.873 0.959s0.873-0.429 0.873-0.959v-2.428h3.399l0.92 18.318c0.012 0.226-0.063 0.449-0.204 0.613z"></path>
</symbol>
<symbol id="icon-google-pay" viewBox="0 0 86 32">
<path fill="#565656" style="fill: var(--color1, #565656)" opacity="0.82" d="M85.895 7.155l-10.992 24.561h-3.4l4.084-8.595-7.237-15.968h3.576l5.237 12.239h0.069l5.071-12.239 3.592 0.003zM40.226 14.75v9.95h-3.455v-24.56h9.142c2.179-0.055 4.29 0.7 5.921 2.124 1.618 1.329 2.508 3.208 2.482 5.195 0.026 2.016-0.892 3.947-2.482 5.208-1.59 1.397-3.563 2.084-5.921 2.084h-5.687zM40.213 3.168v8.566h5.784c1.274 0.042 2.521-0.424 3.413-1.261 0.892-0.795 1.384-1.879 1.384-3.003 0-1.137-0.495-2.221-1.384-3.003-0.918-0.876-2.153-1.342-3.413-1.303l-5.784 0.003zM61.237 7.155c2.192 0 3.934 0.616 5.208 1.837s1.905 2.892 1.905 5.016v10.155h-2.85v-2.29h-0.124c-1.234 1.879-2.866 2.824-4.908 2.824-1.755 0-3.208-0.534-4.387-1.619-1.153-1.013-1.795-2.495-1.768-4.029 0-1.7 0.616-3.055 1.863-4.071 1.234-1 2.892-1.508 4.961-1.508 1.768 0 3.221 0.342 4.358 1.013v-0.713c0.013-1.042-0.439-2.042-1.221-2.742-0.782-0.726-1.811-1.137-2.879-1.124-1.658 0-2.974 0.726-3.947 2.179l-2.618-1.7c1.44-2.153 3.576-3.234 6.4-3.234l0.008 0.005zM57.387 19.121c-0.013 0.795 0.355 1.534 0.987 2.016 0.658 0.534 1.482 0.824 2.316 0.808 1.247 0 2.453-0.521 3.345-1.439 0.945-0.876 1.482-2.11 1.482-3.4-0.932-0.768-2.221-1.153-3.879-1.153-1.221 0-2.221 0.303-3.029 0.905-0.808 0.616-1.221 1.36-1.221 2.263zM16.008 0.139c3.537-0.042 6.963 1.261 9.582 3.661l-4.084 4.003c-1.495-1.384-3.468-2.139-5.497-2.097-3.645 0.013-6.866 2.345-8.045 5.784-0.603 1.739-0.603 3.632 0 5.374 1.179 3.439 4.4 5.771 8.045 5.784 1.932 0 3.592-0.479 4.879-1.329 1.495-0.987 2.537-2.521 2.85-4.276h-7.732v-5.4h13.5c0.166 0.945 0.247 1.892 0.247 2.85 0 4.276-1.563 7.895-4.263 10.334-2.371 2.14-5.619 3.384-9.484 3.384-5.387 0.026-10.321-2.96-12.803-7.732-2.029-3.961-2.029-8.647 0-12.611 2.482-4.771 7.416-7.758 12.787-7.732l0.018 0.003z"></path>
</symbol>
<symbol id="icon-logo-header" viewBox="0 0 22 32">
<path d="M10.701 10.028l-0.145-0.162c-0.125-0.185-0.263-0.337-0.488-0.421 0.034 0.394 0.017 0.371-0.064 0.707-0.172-0.081-0.276-0.29-0.495-0.421 0 0.273-0.040 0.475-0.131 0.707-0.077 0.192-0.175 0.421-0.286 0.536-0.141-0.165-0.546-0.65-0.728-0.711l-0.084 1.445c-0.209-0.017-0.455-0.525-0.549-0.728-0.138 0.623 0.007 1.327 0.135 1.88l-0.97-0.488 0.172 0.889c-0.148 0.003-0.317-0.027-0.499-0.027-0.307 0-0.276-0.051-0.502-0.104 0.327 0.913 1.037 1.704 1.89 1.836 0.445 0.067 0.758-0.088 1.081-0.051-0.296 0.253-0.515 0.34-0.66 0.758 0.512-0.118 0.559-0.152 1.135-0.081-0.047 0.165-0.121 0.212-0.098 0.418 0.549-0.529 1.165 0.327 1.674-0.485 0.219 0.141 0.371 0.465 0.808 0.381 0.172-0.034 0.32-0.108 0.499-0.108 0.249 0 0.253 0.115 0.435 0.182-0.010-0.202-0.064-0.246-0.108-0.391 0.529-0.064 0.691-0.061 1.159 0.118-0.115-0.411-0.461-0.522-0.536-0.741 0.765 0.007 1.253-0.020 1.822-0.408 0.337-0.229 0.883-0.872 0.967-1.425-0.236 0.104-0.66 0.104-0.977 0.131l0.179-0.862c-0.32 0.131-0.596 0.35-0.947 0.445 0.145-0.923 0.182-0.879 0.145-1.836-0.199 0.172-0.175 0.431-0.552 0.714l-0.115-1.485c-0.374 0.263-0.583 0.616-0.728 0.728-0.077-0.101-0.216-0.367-0.276-0.495-0.118-0.246-0.135-0.421-0.115-0.744-0.276 0.108-0.296 0.296-0.522 0.424-0.101-0.381-0.138-0.364-0.040-0.721-0.155-0.007-0.094-0.007-0.36 0.253-0.057 0.057-0.088 0.088-0.141 0.155-0.034 0.044-0.044 0.064-0.071 0.101l-0.061 0.064c0 0-0.013 0.013-0.024 0.020-0.232-0.327-0.337-0.704-0.391-0.798-0.091 0.064-0.313 0.643-0.435 0.805l-0.003-0.003zM10.978 10.573l0.003-0.003c-0.189-0.263-0.013-0.758 0.115-1.004 0.239 0.219 0.293 0.6 0.192 1.034-0.115-0.115-0.101-0.189-0.145-0.36-0.034 0.037-0.024 0.017-0.057 0.074l-0.108 0.259zM10.584 11.264c-0.162-0.138-0.472-1.027-0.313-1.347 0.259 0.091 0.512 0.586 0.566 0.963l-0.253 0.384zM11.392 10.829c0.088-0.377 0.307-0.781 0.529-0.92 0.084 0.108 0.111 0.185 0.104 0.371-0.003 0.131-0.044 0.239-0.084 0.344-0.088 0.222-0.172 0.401-0.239 0.62l-0.051-0.047c0 0-0.017-0.017-0.024-0.024l-0.232-0.34-0.003-0.003zM9.566 13.891v0.003c-0.451-0.077-0.802-0.664-0.957-1.159-0.182-0.583-0.222-1.307-0.071-1.944 0.738 0.354 0.209 0.943 0.323 1.647 0.081 0.509 0.189 0.822 0.482 1.169 0.051 0.057 0.077 0.077 0.125 0.128 0.111 0.125 0.057 0.013 0.098 0.155zM10.469 14.838c-0.664-0.266-0.697-1.314-0.411-2.085 0.111-0.303 0.893-1.62 1.037-1.731 0.128 0.118 0.458 0.64 0.576 0.812 0.165 0.232 0.391 0.552 0.515 0.899 0.313 0.896 0.135 1.725-0.391 2.105 0.094-0.3 0.31-0.418 0.3-0.896-0.010-0.505-0.475-1.189-0.697-1.654-0.138-0.293-0.205-0.68-0.303-0.876-0.36 1.866-1.516 2.021-0.623 3.426h-0.003zM13.693 10.772h-0.003c0.111 0.721 0.152 1.32-0.081 1.997-0.165 0.488-0.525 1.027-0.967 1.152 0.064-0.31 0.243-0.243 0.448-0.573 0.141-0.226 0.229-0.549 0.266-0.872 0.098-0.872-0.381-1.344 0.337-1.704zM9.553 13.406c-0.155-0.104-0.209-0.253-0.293-0.431-0.259-0.549 0.135-2.24 0.495-2.681 0.138 0.168 0.333 0.421 0.451 0.647 0.586 1.118-0.579 0.502-0.653 2.466zM12.706 13.406c-0.091-0.243-0.111-0.643-0.229-0.96-0.35-0.926-0.916-0.65-0.458-1.462 0.074-0.131 0.337-0.579 0.451-0.674 0.307 0.404 0.566 1.297 0.542 2.008 0 0.098-0.007 0.172 0 0.266 0.024 0.283 0.030-0.037 0.024 0.182 0 0.111-0.195 0.522-0.33 0.64zM12.382 14.488l-0.003-0.003c0.067-0.256 0.253-0.273 0.448-0.401 0.179-0.115 0.34-0.303 0.482-0.367-0.084 0.128-0.195 0.286-0.266 0.337 0.364-0.003 0.967-0.738 0.936-1.213-0.054 0.094-0.377 0.566-0.499 0.664 0.118-0.3 0.273-0.431 0.377-0.856 0.071-0.283 0.024-0.431 0.461-0.748-0.030 0.714-0.263 1.351-0.593 1.728-0.185 0.212-0.29 0.34-0.563 0.529-0.212 0.145-0.525 0.283-0.781 0.33zM7.916 11.874h-0.003c0.451 0.344 0.394 0.593 0.492 0.913 0.047 0.152 0.101 0.243 0.145 0.401-0.111-0.084-0.121-0.165-0.303-0.307 0.057 0.333 0.209 0.556 0.364 0.755 0.084 0.108 0.404 0.485 0.589 0.408-0.125-0.094-0.182-0.128-0.243-0.293 0.168 0.121 0.283 0.219 0.478 0.34 0.239 0.152 0.333 0.138 0.411 0.404-0.633-0.162-0.936-0.384-1.344-0.869-0.31-0.364-0.61-1.061-0.586-1.752zM10.826 15.006c-0.377-0.185-0.664-0.795-0.408-1.425 0.091-0.222 0.256-0.468 0.364-0.667 0.098-0.182 0.236-0.579 0.357-0.687 0.344 0.869 0.502 0.879 0.674 1.344 0.104 0.276 0.125 0.552 0.030 0.832-0.074 0.209-0.276 0.512-0.411 0.569 0.239-0.633-0.108-1.519-0.307-2.105-0.115 0.165-0.256 0.687-0.317 0.933-0.131 0.549-0.104 0.68 0.017 1.206zM7.363 12.958c0.633 0.236 0.775 0.451 1.125 0.862 0.121 0.138 0.222 0.205 0.32 0.364-0.168-0.131-0.219-0.229-0.445-0.357-0.199-0.111-0.313-0.192-0.475-0.313 0.094 0.418 0.66 1.095 1.196 0.973-0.098-0.158-0.145-0.138-0.239-0.266 0.185 0.135 0.303 0.253 0.566 0.35 0.239 0.088 0.451 0.067 0.65 0.216-0.563 0.118-1.401-0.098-1.816-0.371-0.408-0.266-0.795-0.771-0.879-1.462l-0.003 0.003zM12.15 14.808c0.222-0.263 0.515-0.040 1.027-0.451 0.027 0.084 0.017-0.054-0.020 0.064-0.027 0.088-0.037-0.007-0.020 0.077 0.525 0.034 1.149-0.492 1.209-0.953-0.283 0.165-0.849 0.677-1.091 0.778l0.711-0.775c0.232-0.259 0.525-0.475 0.913-0.573-0.249 1.331-1.334 1.984-2.728 1.832zM13.999 14.68l0.704-0.694c0.216-0.195 0.536-0.499 0.943-0.384-0.313 0.458-0.842 1.011-1.647 1.078zM6.626 13.561c0.792 0.047 0.903 0.552 1.593 1.095-0.374-0.010-0.65-0.155-0.943-0.344-0.131-0.084-0.253-0.209-0.36-0.313-0.246-0.246-0.205-0.276-0.29-0.438zM11.133 13.336c0.084 0.175 0.189 0.684 0.209 0.916 0.024 0.276 0.024 0.866-0.209 0.879-0.421 0.024-0.232-1.587 0-1.795zM11.759 15.084l-0.037 0.121-0.155-0.061c0.371-0.374 0.963-0.253 1.445-0.061 0.071 0.027 0.158 0.064 0.226 0.101 0.145 0.077 0.125 0.061 0.179 0.175-0.394 0.024-1.314 0.047-1.613-0.145l1.041 0.020c-0.104-0.145-0.317-0.195-0.492-0.216-0.229-0.027-0.381 0.007-0.593 0.064zM8.822 15.347h-0.003c0.195-0.323 1.139-0.472 1.364-0.455l0.448 0.232c-0.027 0.024-0.027 0.030-0.074 0.061-0.296 0.192-1.536 0.195-1.735 0.162zM11.18 15.259c0.192-0.168 0.327-0.088 0.465 0.098-0.168-0.024-0.212-0.077-0.364-0.010 0.054 0.104 0.101 0.158 0.263 0.202s0.276 0.013 0.421-0.017l0.509 0.030c-0.108 0.077-1.182 0.303-1.293-0.307v0.003zM9.758 15.633c0.189-0.31 0.536-0.071 1.021-0.468l0.259 0.074c-0.034 0.276-0.209 0.364-0.455 0.391-0.232 0.027-0.593 0.020-0.825 0v0.003z"></path>
<path d="M0.205 12.79l-0.003 0.010c0.108-0.219 2.594-2.971 2.843-3.244 1.034-1.139 1.843-2.109 2.826-3.187 1.405-1.536 2.914-3.368 4.285-4.807 0.253-0.266 1.25-1.489 1.425-1.556 0.192 0.141 0.495 0.637 0.684 0.876 0.239 0.303 0.421 0.589 0.633 0.872 1.273 1.698 2.648 3.655 3.88 5.251 1.27 1.647 2.621 3.621 3.874 5.258 0.401 0.522 0.879 1.213 1.273 1.725-0.179 0.397-0.731 0.785-1.034 1.246 0.077 0.33 0.849 1.037 0.893 1.354-0.084 0.162-0.135 0.162-0.253 0.283l-0.717 0.845c0.040 0.081 0.003 0.013 0.061 0.115 0.189 0.327 0.778 0.973 0.886 1.243-0.071 0.189-0.509 0.64-0.707 0.869l-1.428 1.6c-0.256 0.276-0.448 0.549-0.694 0.802-0.492 0.505-0.936 1.027-1.428 1.6-0.485 0.573-0.984 1.081-1.432 1.6-0.546 0.63-5.551 6.292-5.696 6.363-0.192-0.226-0.478-0.613-0.667-0.883-0.778-1.122-1.772-2.402-2.594-3.53l-1.913-2.597c-0.269-0.357-0.428-0.583-0.664-0.899l-4.487-6.124c0.118-0.259 0.913-0.97 0.936-1.132 0.027-0.209-0.795-1.037-0.987-1.479l1.061-1.182c-0.179-0.428-0.775-0.916-0.856-1.293zM1.873 11.183l-1.395 1.563c0.189 0.347 0.515 0.728 0.758 1.071 0.249-0.128 3.503-3.857 3.816-4.221l2.53-2.846c0.438-0.482 0.829-0.957 1.277-1.435 0.451-0.482 0.808-0.909 1.273-1.435 0.229-0.256 0.401-0.458 0.623-0.711 0.236-0.269 0.445-0.589 0.687-0.701 1.779 2.442 3.483 4.655 5.181 7.033 0.408 0.569 3.891 5.363 4.072 5.48 0.3-0.229 0.62-0.694 0.889-0.957-0.131-0.293-2.136-2.91-2.476-3.416l-0.613-0.839c-1.253-1.64-2.55-3.513-3.789-5.127l-1.893-2.563c-0.219-0.327-0.397-0.539-0.64-0.862l-0.472-0.657c-0.098-0.128-0.084-0.118-0.202-0.209l-8.253 9.277c-0.465 0.536-0.893 0.997-1.374 1.553zM1.455 14.107l0.003 0.003c0.195 0.286 0.68 0.98 0.872 1.149 0.179-0.158 0.408-0.445 0.546-0.6l6.282-7.067c0.371-0.414 0.751-0.832 1.128-1.263 0.182-0.205 0.367-0.421 0.573-0.65 0.108-0.121 0.172-0.189 0.276-0.31l0.317-0.34 7.663 10.429c0.141 0.189 0.371 0.509 0.529 0.704 0.101-0.061 0.765-0.778 0.835-0.953l-9.054-12.305c-0.138 0.061-4.315 4.76-5.012 5.561-0.761 0.872-4.864 5.416-4.958 5.642zM10.53 26.412l2.243-2.486c0.411-0.478 0.697-0.785 1.125-1.263l3.328-3.746c0.354-0.418 0.781-0.876 1.125-1.27 0.397-0.455 0.744-0.771 1.091-1.253-0.121-0.283-1.677-2.338-2.008-2.779l-6.016-8.138c-0.731 0.704-1.445 1.607-2.25 2.506l-3.358 3.763c-0.495 0.549-3.24 3.621-3.308 3.783l4.005 5.457c0.627 0.883 1.957 2.567 2.516 3.392l1.502 2.035h0.003zM19.85 16.414c0.108 0.219 0.674 0.97 0.795 1.034 0.141-0.125 0.643-0.677 0.785-0.883-0.064-0.283-0.653-0.96-0.758-1.071-0.111 0.081-0.721 0.741-0.822 0.92zM0.364 15.286v-0.003c0.057 0.162 0.748 1.091 0.866 1.213l0.876-0.99c-0.034-0.162-0.687-0.923-0.815-1.192-0.246 0.111-0.687 0.728-0.926 0.973zM10.439 28.941l5.009-5.612c0.775-0.869 1.755-1.933 2.503-2.819 0.243-0.283 2.338-2.553 2.459-2.819-0.064-0.145-0.65-0.97-0.781-1.041l-3.429 3.843c-0.371 0.441-0.768 0.859-1.125 1.27-0.36 0.414-0.771 0.849-1.155 1.293-0.172 0.199-0.367 0.411-0.566 0.653l-2.829 3.126c-0.249-0.192-2.53-3.429-3.092-4.16l-4.635-6.272c-0.121-0.165-0.296-0.536-0.525-0.664-0.263 0.253-0.542 0.62-0.852 0.967 0.152 0.35 2.813 3.884 3.368 4.642 0.933 1.28 2.53 3.328 3.375 4.571l1.708 2.324c0.057 0.081 0.441 0.623 0.576 0.694l-0.007 0.003zM0.374 17.893v-0.007c0.141 0.266 0.36 0.549 0.616 0.872l1.893 2.567c1.317 1.886 3.045 4.072 4.423 5.999 0.226 0.317 0.431 0.579 0.613 0.839l1.89 2.567c0.189 0.239 0.404 0.62 0.627 0.819 0.488-0.492 0.913-1.031 1.378-1.539 2.772-3.032 5.514-6.299 8.256-9.293 0.502-0.542 0.916-0.997 1.381-1.546-0.054-0.286-0.694-1.108-0.866-1.216l-2.557 2.85c-2.149 2.378-4.271 4.901-6.356 7.155-0.408 0.438-0.842 0.994-1.253 1.415-0.172-0.091-1.004-1.297-1.196-1.543l-6.861-9.307c-0.192-0.253-0.374-0.509-0.566-0.775s-0.411-0.616-0.586-0.771c-0.148 0.091-0.65 0.691-0.835 0.916z"></path>
<path d="M12.534 17.186c-0.054 0.084-0.121 0.158-0.205 0.222s-0.189 0.094-0.313 0.094c-0.111 0-0.202-0.034-0.273-0.104s-0.104-0.162-0.104-0.283c0-0.094 0.020-0.179 0.067-0.263 0.044-0.081 0.101-0.152 0.172-0.212s0.145-0.108 0.229-0.138c0.084-0.034 0.165-0.051 0.246-0.051 0.111 0 0.216 0.013 0.32 0.044s0.202 0.061 0.3 0.094c0.094 0.034 0.189 0.064 0.28 0.094s0.179 0.044 0.263 0.044c0.108 0 0.192-0.017 0.253-0.054s0.111-0.074 0.148-0.115c0.037-0.040 0.067-0.081 0.094-0.115 0.024-0.037 0.054-0.054 0.091-0.054 0.017 0 0.034 0.007 0.047 0.017s0.020 0.027 0.020 0.047c0 0.024-0.013 0.047-0.040 0.071-0.027 0.020-0.061 0.047-0.104 0.071-0.040 0.027-0.088 0.054-0.138 0.084s-0.101 0.067-0.152 0.111c-0.374 0.34-0.758 0.674-1.142 1s-0.781 0.65-1.182 0.967l0.007 0.007c0.088-0.040 0.175-0.077 0.266-0.115 0.088-0.037 0.185-0.054 0.283-0.054 0.084 0 0.168 0.013 0.249 0.040 0.084 0.027 0.165 0.057 0.246 0.088 0.084 0.030 0.162 0.061 0.239 0.091 0.074 0.030 0.148 0.044 0.219 0.044 0.077 0 0.148-0.010 0.205-0.030 0.061-0.020 0.115-0.047 0.165-0.081s0.098-0.074 0.145-0.118c0.044-0.047 0.094-0.094 0.145-0.145 0.071-0.067 0.131-0.138 0.185-0.209s0.108-0.141 0.168-0.212l0.017 0.013c-0.071 0.094-0.155 0.199-0.253 0.317s-0.202 0.226-0.32 0.33c-0.115 0.101-0.232 0.189-0.36 0.259-0.125 0.067-0.253 0.104-0.384 0.104-0.101 0-0.192-0.017-0.28-0.054-0.084-0.037-0.165-0.074-0.246-0.115-0.077-0.040-0.155-0.081-0.226-0.115-0.074-0.037-0.148-0.054-0.222-0.054-0.061 0-0.115 0.007-0.158 0.020s-0.084 0.030-0.121 0.054c-0.034 0.024-0.071 0.054-0.101 0.088-0.034 0.034-0.067 0.074-0.104 0.118-0.017 0.013-0.034 0.027-0.047 0.037s-0.030 0.017-0.047 0.017c-0.013 0-0.024-0.003-0.037-0.010-0.010-0.007-0.017-0.017-0.017-0.030 0-0.027 0.010-0.051 0.034-0.071 0.020-0.020 0.051-0.040 0.088-0.064s0.077-0.047 0.125-0.077c0.047-0.030 0.094-0.067 0.138-0.111 0.182-0.168 0.371-0.34 0.566-0.512 0.199-0.172 0.397-0.344 0.593-0.512 0.199-0.168 0.397-0.333 0.589-0.495 0.195-0.162 0.381-0.313 0.559-0.458l-0.007-0.007c-0.101 0.057-0.202 0.104-0.3 0.141-0.101 0.037-0.209 0.057-0.327 0.057-0.084 0-0.168-0.013-0.246-0.047-0.077-0.030-0.158-0.061-0.236-0.098-0.081-0.034-0.155-0.064-0.236-0.094-0.077-0.030-0.162-0.040-0.246-0.040-0.067 0-0.131 0.013-0.185 0.040s-0.104 0.061-0.141 0.104c-0.040 0.040-0.071 0.091-0.091 0.145s-0.030 0.111-0.030 0.168c0 0.040 0.007 0.081 0.024 0.121s0.037 0.077 0.067 0.108c0.030 0.034 0.064 0.061 0.108 0.081 0.040 0.020 0.091 0.030 0.145 0.030 0.121 0 0.216-0.027 0.29-0.084 0.071-0.057 0.138-0.125 0.195-0.205l0.024 0.013 0.010 0.007zM10.125 17.853c0.138-0.243 0.293-0.472 0.465-0.687s0.36-0.421 0.566-0.613l-0.007-0.007c-0.29 0.152-0.552 0.34-0.795 0.563-0.243 0.226-0.485 0.472-0.721 0.744h0.492zM11.567 16.367c-0.185 0.209-0.36 0.424-0.532 0.643-0.168 0.216-0.32 0.435-0.448 0.647s-0.229 0.414-0.307 0.613c-0.077 0.199-0.115 0.381-0.115 0.546 0 0.064 0.010 0.111 0.034 0.135 0.024 0.027 0.051 0.040 0.088 0.040 0.071 0 0.162-0.037 0.276-0.118 0.115-0.077 0.232-0.179 0.357-0.303 0.040-0.040 0.081-0.084 0.121-0.135 0.040-0.047 0.084-0.094 0.125-0.145 0.040-0.047 0.077-0.091 0.108-0.135 0.034-0.040 0.061-0.074 0.084-0.101l0.030 0.020c-0.054 0.074-0.121 0.155-0.192 0.246s-0.168 0.195-0.283 0.313c-0.125 0.125-0.249 0.229-0.374 0.31-0.125 0.084-0.246 0.125-0.374 0.125-0.061 0-0.111-0.010-0.152-0.030s-0.071-0.047-0.094-0.077c-0.024-0.034-0.040-0.071-0.051-0.111s-0.013-0.088-0.013-0.131c0-0.148 0.024-0.293 0.074-0.431 0.047-0.138 0.108-0.269 0.172-0.394h-0.512c-0.101 0.118-0.212 0.243-0.337 0.377-0.121 0.135-0.253 0.256-0.397 0.371-0.141 0.115-0.29 0.209-0.448 0.283-0.155 0.074-0.317 0.115-0.488 0.115-0.071 0-0.141-0.010-0.209-0.027s-0.128-0.040-0.179-0.077c-0.054-0.037-0.098-0.081-0.128-0.135s-0.047-0.118-0.047-0.192c0-0.074 0.020-0.135 0.061-0.195 0.040-0.057 0.098-0.088 0.175-0.088 0.047 0 0.091 0.013 0.125 0.044s0.051 0.067 0.051 0.111c0 0.064-0.020 0.115-0.061 0.145-0.040 0.027-0.091 0.044-0.155 0.044 0 0.051 0.013 0.098 0.037 0.138s0.054 0.074 0.091 0.104c0.037 0.027 0.077 0.047 0.125 0.061s0.091 0.024 0.135 0.024c0.111 0 0.219-0.020 0.323-0.057s0.209-0.088 0.313-0.152c0.101-0.064 0.202-0.138 0.296-0.219 0.094-0.084 0.189-0.168 0.273-0.256 0.088-0.088 0.172-0.175 0.249-0.266s0.148-0.172 0.216-0.243c0.135-0.152 0.273-0.3 0.418-0.448s0.296-0.286 0.455-0.418c0.158-0.131 0.327-0.249 0.499-0.35 0.175-0.104 0.36-0.185 0.552-0.243l0.024 0.020 0.010 0.003z"></path>
<path d="M10.867 20.045c0.003 0.027 0.010 0.064 0.017 0.111 0.003 0.047 0.010 0.094 0.010 0.141 0 0.108-0.017 0.212-0.047 0.313-0.030 0.098-0.077 0.189-0.138 0.263-0.064 0.077-0.138 0.138-0.229 0.182s-0.199 0.064-0.32 0.064c-0.088 0-0.168-0.013-0.239-0.044s-0.128-0.071-0.179-0.125c-0.047-0.054-0.084-0.115-0.111-0.185-0.027-0.074-0.037-0.152-0.037-0.239 0-0.128 0.027-0.253 0.081-0.367s0.128-0.219 0.219-0.317c0.091-0.098 0.199-0.185 0.32-0.263s0.246-0.145 0.381-0.199c0.131-0.054 0.269-0.098 0.408-0.125 0.138-0.030 0.273-0.044 0.397-0.044 0.158 0 0.303 0.013 0.441 0.040 0.135 0.027 0.269 0.067 0.401 0.121 0.091-0.040 0.185-0.077 0.28-0.108s0.192-0.051 0.293-0.054l0.007 0.020c-0.030 0-0.071 0.007-0.121 0.017-0.047 0.013-0.094 0.027-0.141 0.044-0.047 0.020-0.091 0.040-0.135 0.064s-0.074 0.044-0.098 0.064c0.091 0.051 0.162 0.118 0.216 0.199s0.081 0.175 0.081 0.28c0 0.104-0.024 0.185-0.074 0.259-0.051 0.071-0.115 0.131-0.192 0.179s-0.158 0.084-0.249 0.111c-0.091 0.027-0.179 0.047-0.259 0.061l-0.007 0.007c0.074 0.010 0.145 0.020 0.212 0.034 0.071 0.010 0.131 0.034 0.189 0.064 0.054 0.030 0.098 0.074 0.131 0.128s0.047 0.128 0.047 0.219c0 0.128-0.027 0.246-0.084 0.35-0.054 0.104-0.128 0.192-0.219 0.266s-0.195 0.128-0.31 0.168c-0.115 0.037-0.232 0.057-0.35 0.057-0.051 0-0.101-0.007-0.152-0.020s-0.094-0.030-0.138-0.057c-0.040-0.027-0.074-0.061-0.101-0.098-0.027-0.040-0.040-0.088-0.040-0.141 0-0.061 0.020-0.115 0.064-0.158 0.040-0.044 0.094-0.067 0.155-0.067 0.071 0 0.131 0.024 0.185 0.071-0.047 0.027-0.081 0.064-0.104 0.104-0.020 0.040-0.034 0.091-0.034 0.141 0 0.061 0.017 0.108 0.051 0.138s0.081 0.047 0.141 0.047c0.091 0 0.175-0.024 0.249-0.077 0.074-0.051 0.138-0.115 0.189-0.189 0.051-0.077 0.091-0.162 0.121-0.253 0.027-0.091 0.040-0.179 0.040-0.259 0-0.155-0.040-0.266-0.121-0.34-0.081-0.071-0.205-0.108-0.374-0.108v-0.027c0.091-0.007 0.175-0.020 0.259-0.047s0.162-0.064 0.226-0.118c0.067-0.051 0.121-0.115 0.165-0.189 0.040-0.077 0.061-0.168 0.061-0.273 0-0.067-0.013-0.128-0.034-0.189-0.024-0.061-0.061-0.115-0.115-0.155-0.118 0.094-0.222 0.212-0.317 0.36s-0.185 0.307-0.28 0.472c-0.091 0.168-0.189 0.337-0.29 0.505s-0.216 0.323-0.347 0.461c-0.128 0.138-0.28 0.249-0.451 0.333s-0.374 0.128-0.603 0.128c-0.074 0-0.148-0.010-0.219-0.030s-0.135-0.047-0.192-0.088c-0.057-0.037-0.104-0.084-0.138-0.141-0.037-0.057-0.054-0.121-0.054-0.192 0-0.067 0.017-0.128 0.054-0.175 0.037-0.051 0.091-0.074 0.168-0.074 0.054 0 0.098 0.017 0.128 0.047 0.030 0.034 0.047 0.074 0.047 0.121 0 0.044-0.013 0.081-0.040 0.115-0.030 0.030-0.057 0.047-0.084 0.054 0 0.010-0.003 0.024-0.003 0.040 0 0.098 0.030 0.168 0.094 0.212 0.061 0.047 0.152 0.067 0.273 0.067 0.162 0 0.3-0.044 0.421-0.131 0.121-0.084 0.232-0.199 0.333-0.337s0.199-0.296 0.29-0.468c0.094-0.172 0.192-0.344 0.3-0.512s0.226-0.33 0.357-0.482c0.131-0.152 0.283-0.273 0.458-0.367-0.094-0.071-0.202-0.125-0.323-0.162-0.121-0.034-0.243-0.051-0.36-0.051-0.165 0-0.337 0.030-0.515 0.088-0.179 0.061-0.34 0.145-0.485 0.256s-0.266 0.246-0.36 0.404c-0.094 0.158-0.141 0.337-0.141 0.536 0 0.057 0.007 0.115 0.024 0.175 0.013 0.061 0.040 0.118 0.071 0.168 0.034 0.051 0.074 0.091 0.125 0.125 0.047 0.030 0.108 0.047 0.172 0.047 0.091 0 0.172-0.020 0.243-0.061s0.131-0.098 0.185-0.165c0.051-0.071 0.091-0.148 0.118-0.239s0.040-0.182 0.040-0.28c0-0.057 0-0.104-0.007-0.145-0.003-0.040-0.010-0.081-0.013-0.118h0.037l0.003 0.007z"></path>
</symbol>
<symbol id="icon-logo-instagram" viewBox="0 0 32 32">
<path d="M9.953 1.421c1.564-0.072 2.063-0.088 6.047-0.088s4.482 0.017 6.046 0.088c1.562 0.071 2.629 0.319 3.562 0.682 0.979 0.368 1.865 0.946 2.598 1.692 0.746 0.733 1.323 1.619 1.692 2.598 0.363 0.933 0.61 2 0.682 3.561 0.072 1.564 0.088 2.063 0.088 6.047s-0.017 4.482-0.088 6.047c-0.071 1.561-0.319 2.628-0.682 3.561-0.375 0.964-0.877 1.783-1.692 2.598-0.732 0.746-1.619 1.323-2.598 1.692-0.933 0.363-2 0.61-3.561 0.682-1.565 0.072-2.063 0.088-6.047 0.088s-4.482-0.017-6.047-0.088c-1.561-0.071-2.628-0.319-3.561-0.682-0.964-0.375-1.783-0.877-2.598-1.692-0.746-0.732-1.323-1.619-1.692-2.598-0.363-0.933-0.61-2-0.682-3.561-0.072-1.565-0.088-2.062-0.088-6.047s0.017-4.482 0.088-6.046c0.071-1.562 0.319-2.629 0.682-3.562 0.368-0.979 0.946-1.865 1.692-2.598 0.733-0.746 1.619-1.323 2.598-1.692 0.933-0.363 2-0.61 3.561-0.682zM21.927 4.061c-1.547-0.070-2.011-0.086-5.927-0.086s-4.38 0.015-5.927 0.086c-1.43 0.065-2.207 0.304-2.723 0.505-0.684 0.266-1.173 0.583-1.687 1.097s-0.831 1.002-1.097 1.687c-0.201 0.517-0.44 1.293-0.505 2.723-0.070 1.546-0.086 2.011-0.086 5.927s0.015 4.38 0.086 5.927c0.065 1.43 0.304 2.206 0.505 2.723 0.235 0.637 0.61 1.213 1.097 1.687 0.473 0.487 1.050 0.862 1.687 1.097 0.517 0.201 1.293 0.44 2.723 0.505 1.546 0.070 2.010 0.086 5.927 0.086s4.38-0.015 5.927-0.086c1.43-0.065 2.206-0.304 2.723-0.505 0.684-0.266 1.173-0.583 1.687-1.097 0.487-0.473 0.862-1.050 1.097-1.687 0.201-0.517 0.44-1.293 0.505-2.723 0.070-1.547 0.086-2.011 0.086-5.927s-0.015-4.38-0.086-5.927c-0.065-1.43-0.304-2.207-0.505-2.723-0.266-0.684-0.583-1.173-1.097-1.687s-1.002-0.831-1.687-1.097c-0.517-0.201-1.293-0.44-2.723-0.505zM14.127 20.521c0.594 0.246 1.23 0.373 1.873 0.373 1.298 0 2.543-0.516 3.46-1.433s1.433-2.162 1.433-3.46-0.516-2.543-1.433-3.46c-0.918-0.918-2.162-1.433-3.46-1.433-0.643 0-1.279 0.127-1.873 0.372s-1.133 0.606-1.588 1.061c-0.454 0.454-0.815 0.994-1.061 1.588s-0.373 1.23-0.373 1.873 0.127 1.279 0.373 1.873c0.246 0.594 0.606 1.133 1.061 1.588s0.994 0.815 1.588 1.061zM10.669 10.669c1.414-1.414 3.331-2.208 5.331-2.208s3.917 0.794 5.331 2.208 2.208 3.331 2.208 5.331c0 1.999-0.794 3.917-2.208 5.331s-3.331 2.208-5.331 2.208c-1.999 0-3.917-0.794-5.331-2.208s-2.208-3.331-2.208-5.331 0.794-3.917 2.208-5.331zM25.21 9.585c0.334-0.334 0.522-0.787 0.522-1.26s-0.188-0.926-0.522-1.26c-0.334-0.334-0.787-0.522-1.26-0.522s-0.926 0.188-1.26 0.522c-0.334 0.334-0.522 0.787-0.522 1.26s0.188 0.926 0.522 1.26c0.334 0.334 0.788 0.522 1.26 0.522s0.926-0.188 1.26-0.522z"></path>
</symbol>
<symbol id="icon-logo-mail" viewBox="0 0 32 32">
<path stroke-linejoin="round" stroke-linecap="round" stroke-miterlimit="4" stroke-width="2.1333" d="M5.333 5.333h21.333c1.467 0 2.667 1.2 2.667 2.667v16c0 1.467-1.2 2.667-2.667 2.667h-21.333c-1.467 0-2.667-1.2-2.667-2.667v-16c0-1.467 1.2-2.667 2.667-2.667z"></path>
<path stroke-linejoin="round" stroke-linecap="round" stroke-miterlimit="4" stroke-width="2.1333" d="M29.333 8l-13.333 9.333-13.333-9.333"></path>
</symbol>
<symbol id="icon-logo-tel" viewBox="0 0 32 32">
<path stroke-linejoin="miter" stroke-linecap="butt" stroke-miterlimit="4" stroke-width="0.5" d="M2.75 7.758v-3.009c0-1.104 0.895-1.999 2-1.999h4.959c0.978 0 1.812 0.707 1.973 1.671l0.692 4.152c0.144 0.861-0.361 1.699-1.19 1.976l-0.904 0.301c-1.259 0.419-1.971 1.749-1.621 3.029l0.941 3.448c0.673 2.466 2.534 4.433 4.96 5.241l2.288 0.762c1.070 0.356 2.245-0.047 2.871-0.985l1.093-1.64c0.5-0.75 1.441-1.073 2.297-0.788l4.775 1.591c0.817 0.272 1.367 1.036 1.367 1.897v3.846c0 1.104-0.895 1.999-2 1.999h-3c-11.874 0-21.5-9.623-21.5-21.493zM4.75 0.75c-2.209 0-4 1.79-4 3.999v3.009c0 12.975 10.521 23.492 23.5 23.492h3c2.209 0 4-1.79 4-3.999v-3.846c0-1.721-1.102-3.249-2.735-3.794l-4.775-1.591c-1.711-0.57-3.593 0.075-4.593 1.576l-1.093 1.64c-0.125 0.188-0.36 0.268-0.574 0.197l-2.288-0.762c-1.791-0.597-3.166-2.049-3.662-3.87l-0.941-3.448c-0.070-0.256 0.072-0.522 0.324-0.606l0.904-0.301c1.762-0.587 2.836-2.369 2.53-4.201l-0.692-4.152c-0.322-1.928-1.99-3.341-3.946-3.341h-4.959z"></path>
</symbol>
<symbol id="icon-visa" viewBox="0 0 94 32">
<path fill="#565656" style="fill: var(--color1, #565656)" opacity="0.82" d="M68.412 2.598c-2.186-0.796-4.497-1.196-6.823-1.18-7.53 0-12.843 3.796-12.882 9.235-0.047 4 3.78 6.251 6.67 7.592 2.969 1.373 3.961 2.235 3.953 3.471-0.020 1.87-2.373 2.718-4.557 2.718-3.004 0-4.651-0.42-7.18-1.471l-0.937-0.435-1.063 6.267c1.828 0.765 5.122 1.42 8.529 1.471 8.004 0 13.235-3.769 13.298-9.565 0.063-3.188-2-5.608-6.357-7.6-2.643-1.294-4.29-2.161-4.29-3.475 0-1.161 1.408-2.4 4.349-2.4 1.956-0.047 3.9 0.318 5.706 1.071l0.706 0.318 1.063-6.055-0.184 0.039zM87.953 1.931h-5.882c-1.831 0-3.2 0.498-4.004 2.318l-11.314 25.623h8.004l1.6-4.196 9.765 0.008c0.239 0.981 0.941 4.188 0.941 4.188h7.055l-6.165-27.941zM37.882 1.696h7.62l-4.765 27.957h-7.624l4.769-27.965v0.008zM18.514 17.104l0.792 3.882 7.455-19.055h8.075l-12.004 27.902h-8.055l-6.588-23.631c-0.106-0.389-0.359-0.723-0.706-0.929-2.37-1.231-4.883-2.162-7.482-2.773l0.098-0.588h12.278c1.663 0.063 3.004 0.588 3.463 2.369l2.675 12.835v-0.012zM78.545 19.955l3.039-7.82c-0.039 0.078 0.627-1.616 1.012-2.667l0.521 2.412 1.761 8.067h-6.333v0.008z"></path>
</symbol>
</defs>
</svg>
