<svg width="948" height="722" viewBox="0 0 948 722" fill="none" xmlns="http://www.w3.org/2000/svg">
<path d="M317.34 283.517C317.369 288.968 318.48 294.375 320.583 299.937C322.775 305.454 325.781 311.083 331.507 316.623C334.399 319.36 338.11 322.141 343.163 324.366C348.159 326.591 354.732 328.103 361.421 327.992C368.111 327.948 374.48 326.346 379.679 324.099C384.938 321.829 389.291 318.937 393.293 315.644C399.048 310.75 402.933 305.388 405.709 299.025C407.052 295.843 408.044 292.417 408.308 288.59C408.541 284.785 408.105 280.514 405.914 275.975C404.22 272.416 401.384 269.056 397.849 266.408C394.314 263.738 390.107 261.825 385.93 260.624C377.429 258.243 369.134 258.51 361.656 260.312C355.784 261.847 353.068 263.583 350.41 265.162C347.868 266.764 345.763 268.388 343.777 270.124C339.862 273.595 336.386 277.399 333.435 281.782C331.946 283.985 330.601 286.321 329.55 289.08C328.528 291.861 327.623 295.042 328.061 299.425C328.324 301.583 329.023 304.075 330.543 306.678C332.062 309.281 334.518 311.951 337.643 314.02C340.74 316.09 344.361 317.535 347.691 318.359C351.05 319.204 354.178 319.516 357.011 319.56C362.24 319.671 368.462 319.115 374.801 316.468C381.14 313.909 386.282 308.925 388.298 304.475C390.46 299.959 390.518 296.199 390.226 293.084C389.876 289.969 389.056 287.389 388.121 285.008C386.251 280.314 383.8 276.42 381.58 273.15C379.359 269.901 377.286 267.343 376.205 265.986C362.241 249.01 321.896 268.166 335.772 285.186C336.444 286.009 337.876 287.812 339.25 289.859C340.652 291.883 341.967 294.241 342.405 295.487C342.522 295.798 342.61 296.021 342.61 296.11C342.639 296.155 342.609 296.132 342.639 296.155C342.609 296.132 342.608 296.066 342.579 295.954C342.579 295.532 342.375 294.197 343.515 291.749C344.508 289.347 347.896 286.032 351.576 284.607C355.228 283.094 357.829 283.139 358.355 283.139C359.26 283.162 360.722 283.25 362.708 283.74C364.636 284.229 367.09 285.164 369.281 286.632C371.472 288.078 373.223 289.992 374.245 291.727C375.267 293.485 375.648 295.02 375.794 296.155C375.998 298.424 375.561 299.203 375.531 299.358C375.561 299.336 375.59 299.269 375.649 299.18C375.736 299.025 375.883 298.758 376.088 298.446C376.935 297.201 378.688 295.287 379.973 294.197C380.295 293.93 380.556 293.707 380.761 293.552C380.848 293.485 380.937 293.44 380.966 293.396C380.995 293.396 381.023 293.374 381.023 293.374C381.023 293.374 381.024 293.374 380.995 293.396C380.761 293.44 380.293 294.108 376.29 295.198C374.537 295.598 372.288 295.843 368.987 294.953C367.381 294.486 365.569 293.685 364.02 292.528C362.472 291.371 361.275 289.903 360.691 288.635C360.078 287.344 360.167 286.699 360.138 286.677C360.138 286.677 360.138 286.677 360.138 286.721C360.108 286.766 360.107 286.855 360.078 286.944C360.019 287.122 359.933 287.411 359.787 287.723C359.349 288.968 357.771 290.793 357.713 290.704C357.012 291.282 356.457 291.66 356.135 291.838C355.989 291.949 355.902 291.994 355.873 292.017C355.873 291.994 355.844 292.017 355.873 291.994C355.873 291.994 355.929 291.972 355.987 291.95C356.367 291.749 358.208 291.126 360.72 291.104C363.232 291.038 365.921 291.705 367.381 292.373C368.9 293.04 369.397 293.552 369.427 293.574C369.397 293.552 369.339 293.462 369.193 293.284C369.047 293.084 368.841 292.795 368.608 292.439C368.17 291.705 367.673 290.704 367.264 289.591C366.388 287.411 365.98 284.763 366.009 283.517C366.388 273.283 355.375 264.985 341.937 264.985C328.47 264.985 317.252 273.283 317.34 283.517Z" fill="#6D7A5E"/>
<path d="M569.971 275.463C569.412 276.731 568.392 278.934 567.43 281.648C566.468 284.385 565.501 287.611 565.269 291.793C565.179 293.885 565.297 296.265 566.084 299.047C566.876 301.805 568.392 305.076 571.459 308.257C574.469 311.439 579.143 314.287 584.049 315.799C588.988 317.379 593.808 317.802 598.013 317.713C602.544 317.646 607.185 316.845 611.337 315.399C615.484 313.975 619.016 311.928 621.793 309.703C627.372 305.187 630.031 300.203 631.349 295.509C632.605 290.77 632.515 286.12 631.055 281.337C629.505 276.62 626.495 271.503 620.276 267.097C613.351 262.247 604.53 259.956 596.643 259.778C588.699 259.6 581.361 261.135 574.82 264.205C568.392 267.276 562.259 272.259 559.543 279.423C558.197 282.938 557.874 286.877 558.723 290.592C559.543 294.352 561.41 297.823 563.866 300.782C566.52 303.919 569.942 307.345 576.512 310.126C579.754 311.483 583.845 312.485 588.054 312.685C592.23 312.908 596.377 312.329 599.681 311.372C606.398 309.392 610.052 306.567 612.711 304.275C615.337 301.916 617.058 299.758 618.523 297.689C621.414 293.595 623.253 289.769 624.685 286.454C626.116 283.183 627.083 280.469 627.491 279.223C634.15 259.844 588.172 250.612 581.451 269.99C581.129 270.88 580.427 272.815 579.493 274.951C578.56 277.065 577.299 279.401 576.54 280.424C576.365 280.692 576.223 280.847 576.194 280.869C576.194 280.869 576.194 280.869 576.223 280.825C576.28 280.78 576.365 280.692 576.512 280.558C577.128 280.091 578.588 278.622 583.058 277.265C585.219 276.642 588.196 276.197 591.234 276.375C594.244 276.509 597.136 277.243 599.183 278.088C603.331 279.89 604.265 281.403 604.412 281.448C604.876 282.004 605.582 283.116 605.905 284.629C606.256 286.098 606.137 287.9 605.526 289.457C604.298 292.683 601.843 294.374 600.179 295.175C598.397 295.976 596.932 296.288 594.861 296.265C592.875 296.265 589.955 295.531 587.879 294.041C585.219 292.15 584.636 290.614 584.371 289.88C584.139 289.057 584.139 288.767 584.286 288.078C584.489 287.433 584.869 286.209 586.973 284.451C588.025 283.606 589.571 282.694 591.381 282.071C593.192 281.426 595.24 281.092 596.847 281.069C597.809 281.069 599.97 281.136 602.748 282.004C605.492 282.85 608.531 284.652 610.313 286.565C612.152 288.478 612.854 290.214 613.176 291.281C613.465 292.372 613.441 292.884 613.441 293.062C613.441 293.128 613.441 293.128 613.441 293.062C613.47 292.995 613.465 292.861 613.527 292.683C613.612 292.35 613.759 291.838 613.963 291.259C614.375 290.125 614.958 288.835 615.541 287.611C619.983 278.044 613.294 267.542 600.7 264.183C588.139 260.846 574.322 265.874 569.971 275.463Z" fill="#6D7A5E"/>
<path d="M344.155 456.365C343.979 457.076 343.454 458.813 342.899 460.993C342.373 463.195 341.789 465.888 341.673 469.224C341.643 472.538 341.936 476.679 344.682 481.596C346.055 484.022 348.128 486.577 350.961 488.826C353.766 491.072 357.272 492.963 360.923 494.209C367.058 496.436 375.179 497.191 382.102 495.812C389.084 494.476 394.314 491.584 397.907 488.715C401.559 485.776 403.866 482.751 405.59 479.726C407.255 476.657 408.306 473.542 408.656 470.094C409.387 463.105 407.079 455.921 401.704 449.936C396.417 443.972 387.886 439.413 378.363 437.655C368.343 435.694 358.148 437.008 350.319 440.012C342.403 443.037 336.326 447.553 332.061 452.983C327.855 458.434 325.283 465.109 326.393 472.538C327.386 479.949 333.084 487.668 341.41 492.408C344.623 494.278 348.275 496.036 353.124 497.212C357.885 498.415 364.195 498.815 370.183 497.48C376.172 496.191 380.991 493.408 383.971 490.761C387.038 488.068 388.704 485.534 389.902 483.263C392.21 478.704 392.794 474.942 393.086 471.405C393.29 467.867 393.087 464.751 392.182 461.26C389.669 451.492 377.196 445.174 364.401 447.153C351.576 449.134 343.221 458.658 345.792 468.423C345.792 468.358 345.76 468.311 345.76 468.289C345.76 468.267 345.76 468.267 345.76 468.289C345.76 468.311 345.792 468.423 345.792 468.556C345.821 468.823 345.821 469.224 345.792 469.582C345.763 469.935 345.704 470.271 345.675 470.383C345.675 470.426 345.647 470.426 345.647 470.426C345.647 470.426 345.646 470.426 345.675 470.383C345.704 470.314 345.761 470.159 345.878 469.892C346.17 469.379 346.697 468.401 348.362 466.932C349.94 465.509 353.066 463.596 357.126 462.751C361.157 461.838 365.248 462.195 367.439 462.773C368.578 463.04 369.365 463.351 369.833 463.553C370.329 463.751 370.506 463.863 370.506 463.863C371.47 464.242 373.484 466.531 373.601 468.336C373.835 470.159 373.252 471.072 372.96 471.473C372.609 471.896 372.405 472.116 371.47 472.516C370.594 472.895 368.461 473.228 366.737 472.852C365.423 472.672 363.347 471.672 362.295 470.448C361.185 469.224 360.953 467.979 361.04 467.311C361.128 466.397 361.303 466.044 361.537 465.553C361.829 465.087 362.179 464.509 363.377 463.528C364.516 462.596 366.853 461.149 370.563 460.437C374.215 459.658 378.657 460.214 380.847 461.058C382.395 461.593 384.207 462.506 385.609 463.661C387.04 464.798 388.063 466.087 388.647 467.087C389.231 468.134 389.435 468.892 389.522 469.358C389.581 469.582 389.58 469.737 389.58 469.823C389.609 469.935 389.611 469.914 389.611 469.935C389.611 469.849 389.698 468.979 390.019 467.823C390.311 466.643 390.749 465.242 391.246 463.394C393.846 453.495 385.2 443.86 372.201 441.925C359.171 439.99 346.491 446.441 344.155 456.365Z" fill="#6D7A5E"/>
<path d="M565.33 431.381C560.979 436.099 558.704 441.059 557.623 446.066C556.628 451.07 556.832 456.254 558.875 461.618C560.894 466.889 565.098 472.65 572.578 476.903C579.939 481.217 590.021 483.065 598.961 482.397C603.108 482.13 607.749 481.35 612.422 479.394C617.096 477.502 621.452 474.231 623.993 470.694C626.59 467.156 627.557 463.665 627.851 460.77C628.083 457.878 627.733 455.477 627.206 453.384C626.097 449.225 624.372 446.131 622.737 443.485C621.073 440.814 619.409 438.723 617.944 437.009C610.702 428.601 595.861 426.287 584.817 431.803C573.772 437.323 570.706 448.6 577.981 456.99C578.304 457.344 579.062 458.322 579.56 459.145C579.821 459.571 580.029 459.968 580.114 460.192C580.176 460.326 580.205 460.416 580.233 460.438C580.205 460.416 580.2 460.416 580.171 460.282C580.114 460.037 579.939 459.412 580.058 458.188C580.171 456.965 580.612 454.986 582.247 452.784C583.793 450.561 586.717 448.445 589.348 447.377C592.007 446.286 594.078 446.066 594.955 445.998C595.51 445.842 598.984 446.174 601.378 447.644C603.895 449.07 604.772 450.691 605.004 451.272C605.236 451.94 605.123 451.849 605.18 451.828C605.151 451.849 605.18 451.828 605.123 451.94C605.061 452.073 604.947 452.315 604.568 452.716C619.817 436.074 580.669 414.807 565.33 431.381Z" fill="#6D7A5E"/>
<path d="M465.479 365.48C462.382 367.794 459.285 370.086 456.159 372.4C455.458 372.909 455.137 373.177 454.67 373.599C452.771 375.292 451.339 376.848 449.674 378.942C448.068 381.032 446.405 383.436 444.973 386.862C444.301 388.595 443.656 390.62 443.481 393.245C443.335 395.826 443.629 399.187 445.703 402.923C447.69 406.641 451.895 410.399 456.57 412.515C461.273 414.717 465.858 415.493 469.655 415.76C478.214 416.341 485.49 414.226 490.599 411.757C495.799 409.197 499.454 406.194 502.402 402.992C505.322 399.743 507.516 396.226 508.858 392.133C510.114 388.086 510.759 383.212 508.36 377.451C506.289 372.444 501.734 367.837 496.122 365.011C490.514 362.141 484.205 360.897 478.128 360.986C472.023 361.076 465.947 362.477 460.6 365.325C455.255 368.126 450.844 372.577 448.77 377.584C446.725 382.523 446.986 386.794 448.008 390.577C449.089 394.36 451.047 397.808 454.202 401.122C457.386 404.349 462.003 407.685 469.013 409.645C472.49 410.601 476.493 411.11 480.494 410.955C484.523 410.822 488.471 410.046 491.86 408.843C496.444 407.284 501.174 404.483 504.36 400.898C507.602 397.338 509.062 393.378 509.474 390.154C510.204 383.591 508.218 379.364 506.55 375.826C504.739 372.31 502.724 369.53 501.032 367.238C499.335 365.011 497.818 363.166 497.615 362.877C491.538 354.066 477.048 351.018 465.624 355.891C454.231 360.763 449.88 371.866 456.336 380.519C457.68 382.321 458.817 383.656 459.927 385.169C461.008 386.617 461.945 388.061 462.295 388.775C462.383 388.952 462.412 389.064 462.441 389.108C462.441 389.086 462.441 389.129 462.441 389.108C462.412 389.086 462.413 389.043 462.384 388.952C462.325 388.663 462.091 387.884 462.295 386.393C462.47 384.924 463.23 382.61 465.217 380.454C467.115 378.252 470.035 376.628 472.08 375.96C473.716 375.379 475.967 374.891 478.332 374.823C480.731 374.714 483.153 375.047 485.139 375.603C489.23 376.736 491.306 378.429 492.472 379.606C493.643 380.877 494.169 381.812 494.548 383.079C494.865 384.324 495.131 386.014 494.05 388.75C493.116 391.111 490.746 393.58 487.912 395.024C485.082 396.537 482.015 397.23 478.948 397.273C475.882 397.317 472.549 396.696 469.481 395.136C466.414 393.624 463.932 390.999 462.997 388.685C461.829 385.703 462.354 384.126 462.529 383.389C462.792 382.656 462.907 382.545 463.083 382.299C463.287 382.101 463.58 381.721 465.011 380.989C466.384 380.299 469.569 379.162 474.009 379.472C475.526 379.584 478.332 379.942 481.693 381.498C485.049 382.967 488.324 385.905 489.756 388.642C491.272 391.4 491.391 393.624 491.329 395.003C491.216 396.429 490.922 397.14 490.78 397.562C490.429 398.342 490.543 397.984 490.836 397.674C490.95 397.519 491.097 397.338 491.187 397.273C491.216 397.252 491.216 397.23 491.244 397.205C491.244 397.205 491.244 397.205 491.244 397.23C491.216 397.23 491.159 397.295 490.983 397.45C490.486 397.851 489.988 398.252 489.49 398.652C492.619 396.36 495.742 394.068 498.866 391.779C508.422 384.768 508.654 373.177 499.425 365.924C490.22 358.65 475 358.45 465.479 365.48Z" fill="#6D7A5E"/>
<path d="M459.483 186.467C455.276 192.007 451.069 197.525 446.862 203.065C461.79 206.914 476.716 210.741 491.619 214.59C492.699 208.649 493.775 202.709 494.856 196.746C496.7 186.668 487.324 177.39 474.09 176.055C460.856 174.698 448.616 181.795 446.922 191.874C445.899 197.836 444.905 203.777 443.912 209.74C443.153 214.278 444.553 218.572 447.504 222.065C450.425 225.558 454.985 228.25 460.185 229.563C465.355 230.875 471.108 230.809 476.218 229.318C481.333 227.872 485.831 225.068 488.666 221.264C492.785 215.702 496.932 210.118 501.051 204.555C514.053 187.024 472.716 169.025 459.483 186.467Z" fill="#6D7A5E"/>
<path d="M241.55 415.074C242.105 411.114 242.66 407.154 243.244 403.194C244.676 393.136 234.918 384.169 221.714 383.169C208.51 382.169 196.621 389.487 195.423 399.544C194.955 403.526 194.49 407.486 193.994 411.446C191.598 431.471 238.658 435.052 241.55 415.074Z" fill="#6D7A5E"/>
<path d="M341.732 604.718C334.985 603.827 328.209 602.96 321.46 602.069C308.256 600.357 295.841 607.433 293.825 617.512C291.78 627.588 300.835 637.201 314.097 638.58C320.875 639.27 327.684 639.981 334.461 640.692C347.344 642.028 359.086 635.042 361.043 625.386C363 615.732 354.557 606.386 341.732 604.718Z" fill="#6D7A5E"/>
<path d="M530.946 602.025C527.88 602.56 524.78 603.094 521.684 603.628C509.18 605.787 501.203 614.953 503.25 624.342C505.322 633.732 516.745 640.429 529.486 639.382C532.638 639.115 535.824 638.869 538.947 638.602C552.328 637.515 561.178 627.368 558.96 617.267C556.77 607.166 544.062 599.78 530.946 602.025Z" fill="#6D7A5E"/>
<path d="M761.253 440.059C764.377 439.279 767.506 438.478 770.629 437.676C782.522 434.673 787.224 423.818 783.484 415.229C779.716 406.641 767.387 400.122 755.499 403.147C752.375 403.927 749.247 404.728 746.152 405.508C734.259 408.533 729.529 419.388 733.268 427.976C737.037 436.565 749.366 443.084 761.253 440.059Z" fill="#6D7A5E"/>
<path d="M682.645 519.284C680.1 522.089 677.564 524.89 675.018 527.695C660.092 544.135 698.041 564.781 713.64 548.72C716.299 545.984 718.958 543.222 721.646 540.486C729.5 532.388 726.812 520.887 716.062 515.035C705.283 509.183 690.153 510.985 682.645 519.284Z" fill="#6D7A5E"/>
<path d="M766.975 250.255C763.851 249.855 760.722 249.454 757.599 249.053C744.829 247.452 733.003 254.416 730.898 264.005C728.794 273.594 737.032 283.116 749.797 284.74C752.925 285.141 756.02 285.541 759.149 285.942C771.914 287.566 783.745 280.58 785.844 270.991C787.949 261.402 779.739 251.879 766.975 250.255Z" fill="#6D7A5E"/>
<path d="M624.922 126.487C624.979 131.248 625.04 136.009 625.069 140.77C625.273 160.905 672.744 160.905 672.948 140.77C673.004 136.009 673.066 131.248 673.095 126.487C673.213 116.363 662.316 108.131 649.025 108.154C635.701 108.154 624.803 116.363 624.922 126.487Z" fill="#6D7A5E"/>
<path d="M419.727 85.6382C415.725 91.6456 411.724 97.6747 407.722 103.682C395.832 121.525 436.845 138.212 449.698 120.747C454.022 114.851 458.347 108.977 462.67 103.081C469.243 94.1596 464.511 82.8351 452.651 78.007C440.791 73.2014 425.803 76.5165 419.727 85.6382Z" fill="#6D7A5E"/>
<path d="M208.785 218.484C215.066 221.221 221.318 223.98 227.599 226.717C237.473 231.033 250.035 224.225 254.972 217.772C259.909 211.343 261.515 199.64 251.728 195.235C245.477 192.431 239.253 189.628 233.031 186.825C221.58 181.663 206.829 184.667 200.11 193.41C193.42 202.154 197.246 213.434 208.785 218.484Z" fill="#6D7A5E"/>
<path d="M110.815 306.945C104.067 311.729 97.3191 316.512 90.6001 321.296C71.2031 335.068 103.57 361.787 123.142 348.172C129.919 343.433 136.727 338.694 143.534 333.955C153.379 327.102 153.933 315.444 144.906 307.991C135.85 300.538 120.543 300.026 110.815 306.945Z" fill="#6D7A5E"/>
<path d="M175.094 531.497C172.524 533.121 169.925 534.724 167.355 536.327C156.078 543.334 172.349 558.843 183.829 552.012C186.459 550.431 189.089 548.875 191.689 547.294C197.473 543.847 198.349 537.439 193.763 533.078C189.177 528.717 180.791 527.959 175.094 531.497Z" fill="#6D7A5E"/>
<path d="M451.013 535.771C449.435 537.37 447.889 538.951 446.311 540.532C441.959 544.958 443.125 551.233 448.939 554.547C454.752 557.864 462.989 556.972 467.342 552.547C468.92 550.965 470.469 549.384 472.047 547.785C476.398 543.356 475.199 537.081 469.387 533.767C463.603 530.453 455.365 531.341 451.013 535.771Z" fill="#6D7A5E"/>
<path d="M816.654 520.396C818.228 521.62 819.806 522.822 821.413 524.024C831.728 531.901 850.451 517.66 840.113 509.786C838.534 508.584 836.927 507.36 835.349 506.158C825.011 498.281 806.312 512.544 816.654 520.396Z" fill="#6D7A5E"/>
<path d="M666.899 381.743C669.264 381.743 671.663 381.743 674.056 381.743C681.332 381.743 687.262 377.249 687.262 371.686C687.262 366.148 681.332 361.632 674.056 361.632C671.663 361.632 669.264 361.632 666.899 361.632C659.595 361.632 653.693 366.148 653.693 371.686C653.693 377.249 659.595 381.743 666.899 381.743Z" fill="#6D7A5E"/>
<path d="M808.032 332.33C804.904 333.754 801.78 335.178 798.652 336.58C793.248 339.027 793.978 345.434 796.609 349.017C799.268 352.599 806.075 356.403 811.625 354.156C814.839 352.843 818.081 351.553 821.295 350.24C827.864 347.593 830.088 341.185 826.433 336.246C822.783 331.284 814.46 329.415 808.032 332.33Z" fill="#6D7A5E"/>
<path d="M688.66 217.928C690.85 216.104 693.012 214.279 695.202 212.455C705.103 204.156 685.537 190.495 675.516 198.75C673.322 200.552 671.132 202.354 668.942 204.156C663.918 208.294 664.325 214.746 669.757 218.551C675.222 222.355 683.693 222.088 688.66 217.928Z" fill="#6D7A5E"/>
<path d="M297.775 135.632C298.359 135.276 298.913 134.943 299.498 134.609C311.007 127.69 297.541 112.338 284.746 117.767C284.132 118.034 283.491 118.301 282.877 118.568C276.392 121.305 274.99 128.046 279.109 132.762C283.228 137.479 291.932 139.125 297.775 135.632Z" fill="#6D7A5E"/>
<path d="M90.1139 239.819C94.087 239.775 98.0601 239.753 102.033 239.708C109.307 239.642 115.239 235.214 115.239 229.652C115.239 224.09 109.307 219.662 102.033 219.596C98.0601 219.551 94.087 219.529 90.1139 219.484C82.7233 219.418 76.7656 224.045 76.7656 229.652C76.7656 235.259 82.7233 239.886 90.1139 239.819Z" fill="#6D7A5E"/>
<path d="M76.2713 446.488C75.2778 448.134 74.2573 449.802 73.2643 451.452C70.1387 456.524 73.1477 462.531 79.8372 464.867C86.5268 467.181 94.4421 464.953 97.4217 459.838C98.4152 458.17 99.3784 456.499 100.372 454.831C106.273 444.644 82.4352 436.409 76.2713 446.488Z" fill="#6D7A5E"/>
<path d="M352.518 368.91C351.554 372.09 350.589 375.27 349.625 378.451C346.353 389.219 371.738 393.826 375.214 383.079C376.237 379.92 377.261 376.74 378.284 373.581C380.008 368.173 375.566 362.722 368.467 361.433C361.34 360.142 354.183 363.48 352.518 368.91Z" fill="#6D7A5E"/>
<path d="M236.357 303.184C234.955 304.674 233.58 306.187 232.178 307.7C227.883 312.35 229.373 318.78 235.479 322.028C241.584 325.299 250.028 324.164 254.293 319.514C255.695 318.001 257.096 316.466 258.469 314.953C266.999 305.653 244.917 293.884 236.357 303.184Z" fill="#6D7A5E"/>
<path d="M468.612 287.009C469.021 288.5 469.401 290.013 469.81 291.525C471.241 296.999 478.19 300.536 485.376 299.446C492.534 298.356 497.212 293.038 495.78 287.587C495.368 286.075 494.96 284.539 494.581 283.026C493.121 277.575 486.168 274.038 478.982 275.128C471.825 276.218 467.181 281.536 468.612 287.009Z" fill="#6D7A5E"/>
<path d="M291.685 542.532C289.349 544.157 287.011 545.803 284.645 547.428C273.895 554.926 291.159 569.698 302.173 562.445C304.597 560.864 306.995 559.286 309.39 557.705C314.97 554.034 315.378 547.561 310.5 543.377C305.592 539.175 297.119 538.749 291.685 542.532Z" fill="#6D7A5E"/>
<path d="M643.625 603.094C642.63 606.321 641.606 609.548 640.616 612.751C637.255 623.519 662.434 628.302 666.117 617.624C667.226 614.418 668.335 611.216 669.416 608.011C671.288 602.585 666.875 597.065 659.751 595.729C652.622 594.376 645.318 597.643 643.625 603.094Z" fill="#6D7A5E"/>
<path d="M823.565 194.5C824.646 192.698 825.694 190.896 826.746 189.072C829.699 184.022 826.689 178.103 820.058 175.878C813.426 173.631 805.658 175.9 802.705 180.951C801.657 182.753 800.605 184.578 799.552 186.38C796.599 191.43 799.576 197.348 806.207 199.595C812.839 201.842 820.612 199.551 823.565 194.5Z" fill="#6D7A5E"/>
<path d="M876.535 418.522C880.479 418.323 884.451 418.121 888.395 417.922C895.609 417.565 901.046 412.76 900.576 407.266C900.079 401.768 893.855 397.587 886.641 397.941C882.697 398.143 878.725 398.342 874.781 398.544C867.539 398.923 862.102 403.706 862.599 409.201C863.069 414.695 869.288 418.901 876.535 418.522Z" fill="#6D7A5E"/>
<path d="M141.706 646.811C145.649 645.609 149.592 644.385 153.536 643.161C159.758 641.226 161.453 635.064 159.116 630.66C156.808 626.256 150.031 622.693 143.779 624.563C139.806 625.765 135.833 626.945 131.889 628.122C125.082 630.169 121.812 636.042 124.529 641.205C127.216 646.367 134.928 648.901 141.706 646.811Z" fill="#6D7A5E"/>
<path d="M47.5321 542.955C47.8241 544.558 48.1469 546.16 48.4393 547.76C50.5136 558.842 76.3959 556.395 74.8478 545.247C74.643 543.644 74.4079 542.02 74.1742 540.421C73.3855 534.789 66.5504 530.829 59.1887 531.544C51.827 532.233 46.4804 537.37 47.5321 542.955Z" fill="#6D7A5E"/>
</svg>
